<svg xmlns="http://www.w3.org/2000/svg" xmlns:xlink="http://www.w3.org/1999/xlink" width="542" height="104" viewBox="0 0 542 104">
  <defs>
    <clipPath id="clip-path">
      <rect id="Rectangle_21" data-name="Rectangle 21" width="542" height="104" transform="translate(955 844)" fill="#fff" stroke="#707070" stroke-width="1"/>
    </clipPath>
    <linearGradient id="linear-gradient" x1="0.168" y1="0.145" x2="1" y2="1" gradientUnits="objectBoundingBox">
      <stop offset="0" stop-color="#262261"/>
      <stop offset="1" stop-color="#4d60ef"/>
    </linearGradient>
    <linearGradient id="linear-gradient-2" x1="0.5" y1="0.228" x2="0.802" y2="0.925" gradientUnits="objectBoundingBox">
      <stop offset="0" stop-color="#ee4036"/>
      <stop offset="1" stop-color="#4d60ef"/>
    </linearGradient>
  </defs>
  <g id="Mask_Group_1" data-name="Mask Group 1" transform="translate(-955 -844)" clip-path="url(#clip-path)">
    <g id="Group_38" data-name="Group 38" transform="translate(1.727)">
      <g id="Group_37" data-name="Group 37" transform="translate(978.272 863)">
        <path id="Union_26" data-name="Union 26" d="M32.623,38.871c-.83-7.277-1.341-16.66-3.256-19.917-.063-.127,2.3-4.085,2.3-4.085l5.3.766,1.6,5.937.7,3.957.3,3.752s-.04,12.526-1.636,18.015c0,.005-.013.008-.031.008C37.489,47.3,33.417,45.838,32.623,38.871ZM.221,35.62a86.329,86.329,0,0,0,1.4-12.395A53.011,53.011,0,0,0,0,7.867L1.619.647S13.071-3,16.39,7.037s.944,22.986.944,22.986L10,41.558S.006,37.484.221,35.62Z" transform="translate(28.899 17.293)" fill="url(#linear-gradient)"/>
        <path id="Union_28" data-name="Union 28" d="M29.355,58.172a11,11,0,0,1,0-6.375s2.572,5.311,7.3,0,10.7-16.929,10.7-16.929,4.9-9.045,11.7-7.717,9.626,6.473,9.376,19.252c-.082,0-.962-6.492-2.242-9.078,0-.029-.987-2.615-2.992-2.673,0,.058-1.976-.2-5.259,4.881-.058.029-9.4,18.1-9.35,18.049S44.249,65.4,39.1,65.622c-.2.008-.4.013-.6.013C33.709,65.635,30.681,63.077,29.355,58.172Zm-28,1.069C-4.253,46.943,9.34,28.388,9.34,28.388s13.7-18.016,25.567-16.505S46.6,30.054,46.6,30.054a18.4,18.4,0,0,1-.635-1.752c-3.241-6.137-7.386-9.838-14.074-4.121S21.853,53.092,21.853,53.092s-.215,10.788-9.062,12.19a14.02,14.02,0,0,1-2.2.18A9.7,9.7,0,0,1,1.358,59.241ZM53.894,20.429a4.441,4.441,0,1,1,4.441,4.441A4.441,4.441,0,0,1,53.894,20.429Zm-30.2-15.4a5.033,5.033,0,1,1,5.033,5.034A5.033,5.033,0,0,1,23.695,5.033Z" transform="translate(0.001 0)" fill="url(#linear-gradient-2)"/>
      </g>
      <path id="Path_104" data-name="Path 104" d="M52.36-38.216A14.47,14.47,0,0,1,63.206-34q4.114,4.216,4.114,11.832V0H57.8V-20.808q0-4.42-2.244-6.766a8.069,8.069,0,0,0-6.12-2.346,8.181,8.181,0,0,0-6.154,2.346Q41-25.228,41-20.808V0h-9.52V-20.808q0-4.42-2.244-6.766a8.069,8.069,0,0,0-6.12-2.346,8.181,8.181,0,0,0-6.154,2.346q-2.278,2.346-2.278,6.766V0H5.1V-37.672h9.588v5.644a11.969,11.969,0,0,1,4.794-4.59,14.556,14.556,0,0,1,6.9-1.6,14.849,14.849,0,0,1,7.65,1.972,13.218,13.218,0,0,1,5.2,5.644,14.684,14.684,0,0,1,5.406-5.576A14.822,14.822,0,0,1,52.36-38.216Zm23.8-9.044a5.644,5.644,0,0,1,1.7-4.148,5.564,5.564,0,0,1,4.08-1.7,5.644,5.644,0,0,1,4.148,1.7,5.644,5.644,0,0,1,1.7,4.148,5.644,5.644,0,0,1-1.7,4.148,5.644,5.644,0,0,1-4.148,1.7,5.564,5.564,0,0,1-4.08-1.7A5.644,5.644,0,0,1,76.16-47.26Zm10.608,9.588V0H77.18V-37.672Zm31.484-.544a14.965,14.965,0,0,1,7.514,1.87,13.157,13.157,0,0,1,5.2,5.508,18.469,18.469,0,0,1,1.9,8.67V0h-9.52V-20.808q0-4.42-2.244-6.766a8.069,8.069,0,0,0-6.12-2.346,8.181,8.181,0,0,0-6.154,2.346q-2.278,2.346-2.278,6.766V0H96.968V-37.672h9.588v5.644a11.969,11.969,0,0,1,4.794-4.59A14.556,14.556,0,0,1,118.252-38.216Zm39.3,0a14.711,14.711,0,0,1,7.14,1.7,13.521,13.521,0,0,1,5.032,4.692v-18.5h9.52V0h-9.52V-6.324a14.738,14.738,0,0,1-5.066,5.032A13.658,13.658,0,0,1,157.556.544a16.3,16.3,0,0,1-8.806-2.482,17.748,17.748,0,0,1-6.324-6.9A21.135,21.135,0,0,1,140.08-18.9a20.935,20.935,0,0,1,2.346-10.03,17.552,17.552,0,0,1,6.324-6.834A16.473,16.473,0,0,1,157.556-38.216Zm2.176,8.3a9.576,9.576,0,0,0-4.794,1.292,9.887,9.887,0,0,0-3.706,3.774A11.739,11.739,0,0,0,149.8-18.9a12.121,12.121,0,0,0,1.428,6.018,9.771,9.771,0,0,0,3.706,3.842,9.576,9.576,0,0,0,4.794,1.292,9.7,9.7,0,0,0,4.862-1.292,9.827,9.827,0,0,0,3.706-3.808,11.929,11.929,0,0,0,1.428-5.984A11.929,11.929,0,0,0,168.3-24.82a9.827,9.827,0,0,0-3.706-3.808A9.7,9.7,0,0,0,159.732-29.92Zm39.3-1.088a14.061,14.061,0,0,1,4.59-5.3,11.222,11.222,0,0,1,6.426-1.9v9.792h-2.38q-4.284,0-6.46,2.142T199.036-18.9V0h-9.588V-37.672h9.588Zm52.7,11.628a23.276,23.276,0,0,1-.272,3.672H223.992a8.949,8.949,0,0,0,2.72,5.916,8.47,8.47,0,0,0,6.052,2.244,8.366,8.366,0,0,0,4.556-1.088,8.45,8.45,0,0,0,2.788-2.992h10.336a16.537,16.537,0,0,1-6.324,8.772,18.831,18.831,0,0,1-11.356,3.4,18.948,18.948,0,0,1-9.588-2.414,17.012,17.012,0,0,1-6.6-6.8A21.131,21.131,0,0,1,214.2-18.9a20.933,20.933,0,0,1,2.38-10.2,16.774,16.774,0,0,1,6.63-6.732,19.49,19.49,0,0,1,9.69-2.38,19.948,19.948,0,0,1,9.69,2.312,16.949,16.949,0,0,1,6.7,6.562A19.611,19.611,0,0,1,251.736-19.38ZM241.808-21.9a8.209,8.209,0,0,0-2.754-5.984,9.18,9.18,0,0,0-6.29-2.244,8.323,8.323,0,0,0-5.882,2.244,9.5,9.5,0,0,0-2.89,5.984Zm32.3-16.32a14.711,14.711,0,0,1,7.14,1.7,13.521,13.521,0,0,1,5.032,4.692v-5.848h9.52V0h-9.52V-6.324a14.739,14.739,0,0,1-5.066,5.032A13.658,13.658,0,0,1,274.108.544,16.3,16.3,0,0,1,265.3-1.938a17.748,17.748,0,0,1-6.324-6.9A21.135,21.135,0,0,1,256.632-18.9a20.935,20.935,0,0,1,2.346-10.03,17.552,17.552,0,0,1,6.324-6.834A16.473,16.473,0,0,1,274.108-38.216Zm2.176,8.3a9.576,9.576,0,0,0-4.794,1.292,9.887,9.887,0,0,0-3.706,3.774,11.739,11.739,0,0,0-1.428,5.95,12.121,12.121,0,0,0,1.428,6.018,9.771,9.771,0,0,0,3.706,3.842,9.576,9.576,0,0,0,4.794,1.292,9.7,9.7,0,0,0,4.862-1.292,9.827,9.827,0,0,0,3.706-3.808,11.929,11.929,0,0,0,1.428-5.984,11.929,11.929,0,0,0-1.428-5.984,9.827,9.827,0,0,0-3.706-3.808A9.7,9.7,0,0,0,276.284-29.92Zm76.976-8.3A14.47,14.47,0,0,1,364.106-34q4.114,4.216,4.114,11.832V0H358.7V-20.808q0-4.42-2.244-6.766a8.069,8.069,0,0,0-6.12-2.346,8.181,8.181,0,0,0-6.154,2.346q-2.278,2.346-2.278,6.766V0h-9.52V-20.808q0-4.42-2.244-6.766a8.069,8.069,0,0,0-6.12-2.346,8.181,8.181,0,0,0-6.154,2.346q-2.278,2.346-2.278,6.766V0H306V-37.672h9.588v5.644a11.969,11.969,0,0,1,4.794-4.59,14.556,14.556,0,0,1,6.9-1.6,14.849,14.849,0,0,1,7.65,1.972,13.219,13.219,0,0,1,5.2,5.644,14.684,14.684,0,0,1,5.406-5.576A14.822,14.822,0,0,1,353.26-38.216Zm38.284,0a16.52,16.52,0,0,1,10.608,3.3,11.581,11.581,0,0,1,4.42,8.942H396.78q-.408-4.76-5.848-4.76a7.07,7.07,0,0,0-4.216,1.088,3.372,3.372,0,0,0-1.5,2.856,2.907,2.907,0,0,0,1.088,2.38,8.131,8.131,0,0,0,2.686,1.394q1.6.51,4.59,1.19a51.4,51.4,0,0,1,6.834,1.87,11.228,11.228,0,0,1,4.59,3.128,8.54,8.54,0,0,1,1.9,5.882,9.591,9.591,0,0,1-1.972,5.984A13.022,13.022,0,0,1,399.5-.918,19.956,19.956,0,0,1,391.68.544q-6.8,0-11.084-3.162A11.669,11.669,0,0,1,375.9-11.7H385.7a5.013,5.013,0,0,0,1.836,3.536,6.662,6.662,0,0,0,4.216,1.224,7.1,7.1,0,0,0,4.284-1.19,3.606,3.606,0,0,0,1.632-3.026,3,3,0,0,0-1.088-2.414,7.744,7.744,0,0,0-2.72-1.428q-1.632-.51-4.692-1.19A52.189,52.189,0,0,1,382.4-18.02a11.3,11.3,0,0,1-4.522-3.026,7.975,7.975,0,0,1-1.9-5.61,9.946,9.946,0,0,1,1.836-5.78,12.447,12.447,0,0,1,5.372-4.216A20.552,20.552,0,0,1,391.544-38.216Z" transform="translate(1064 922.108)" fill="#262261" stroke="rgba(0,0,0,0)" stroke-width="1"/>
    </g>
  </g>
</svg>
